<?xml version="1.0" encoding="UTF-8" standalone="no"?>
<!DOCTYPE svg PUBLIC "-//W3C//DTD SVG 1.1//EN"
 "http://www.w3.org/Graphics/SVG/1.1/DTD/svg11.dtd">
<!-- Generated by graphviz version 2.43.0 (0)
 -->
<!-- Title: G Pages: 1 -->
<svg width="180pt" height="170pt"
 viewBox="0.00 0.00 179.62 169.52" xmlns="http://www.w3.org/2000/svg" xmlns:xlink="http://www.w3.org/1999/xlink">
<g id="graph0" class="graph" transform="scale(1 1) rotate(0) translate(4 165.52)">
<title>G</title><style>.edge>path:hover{stroke-width:8}</style>
<polygon fill="white" stroke="transparent" points="-4,4 -4,-165.52 175.62,-165.52 175.62,4 -4,4"/>
<!-- holms_core_writer -->
<g id="node1" class="node">
<title>holms_core_writer</title><style>.edge>path:hover{stroke-width:8}</style>
<polygon fill="#249324" stroke="black" points="70.62,-117.19 70.62,-143.09 49.88,-161.4 20.54,-161.4 -0.21,-143.09 -0.21,-117.19 20.54,-98.88 49.88,-98.88 70.62,-117.19"/>
<text text-anchor="middle" x="35.21" y="-138.64" font-family="Helvetica,sans-Serif" font-size="10.00" fill="#ffffff">holms.</text>
<text text-anchor="middle" x="35.21" y="-127.64" font-family="Helvetica,sans-Serif" font-size="10.00" fill="#ffffff">core.</text>
<text text-anchor="middle" x="35.21" y="-116.64" font-family="Helvetica,sans-Serif" font-size="10.00" fill="#ffffff">writer</text>
</g>
<!-- holms_core_view -->
<g id="node4" class="node">
<title>holms_core_view</title><style>.edge>path:hover{stroke-width:8}</style>
<polygon fill="#38a838" stroke="black" points="70.62,-18.43 70.62,-44.33 49.88,-62.64 20.54,-62.64 -0.21,-44.33 -0.21,-18.43 20.54,-0.12 49.88,-0.12 70.62,-18.43"/>
<text text-anchor="middle" x="35.21" y="-39.88" font-family="Helvetica,sans-Serif" font-size="10.00" fill="#ffffff">holms.</text>
<text text-anchor="middle" x="35.21" y="-28.88" font-family="Helvetica,sans-Serif" font-size="10.00" fill="#ffffff">core.</text>
<text text-anchor="middle" x="35.21" y="-17.88" font-family="Helvetica,sans-Serif" font-size="10.00" fill="#ffffff">view</text>
</g>
<!-- holms_core_writer&#45;&gt;holms_core_view -->
<g id="edge4" class="edge">
<title>holms_core_writer&#45;&gt;holms_core_view</title><style>.edge>path:hover{stroke-width:8}</style>
<path fill="none" stroke="black" d="M28.89,-98.79C28.48,-90.67 28.36,-81.77 28.53,-73.19"/>
<polygon fill="#249324" stroke="black" points="32.04,-73.07 28.88,-62.96 25.04,-72.83 32.04,-73.07"/>
</g>
<!-- holms_cmd_legend -->
<g id="node2" class="node">
<title>holms_cmd_legend</title><style>.edge>path:hover{stroke-width:8}</style>
<polygon fill="#35a135" stroke="black" points="165.62,-117.19 165.62,-143.09 144.88,-161.4 115.54,-161.4 94.79,-143.09 94.79,-117.19 115.54,-98.88 144.88,-98.88 165.62,-117.19"/>
<text text-anchor="middle" x="130.21" y="-138.64" font-family="Helvetica,sans-Serif" font-size="10.00" fill="#ffffff">holms.</text>
<text text-anchor="middle" x="130.21" y="-127.64" font-family="Helvetica,sans-Serif" font-size="10.00" fill="#ffffff">cmd.</text>
<text text-anchor="middle" x="130.21" y="-116.64" font-family="Helvetica,sans-Serif" font-size="10.00" fill="#ffffff">legend</text>
</g>
<!-- holms_cmd -->
<g id="node3" class="node">
<title>holms_cmd</title><style>.edge>path:hover{stroke-width:8}</style>
<polygon fill="#2bac2b" stroke="black" points="171.54,-23.92 171.54,-38.84 147.33,-49.38 113.09,-49.38 88.88,-38.84 88.88,-23.92 113.09,-13.38 147.33,-13.38 171.54,-23.92"/>
<text text-anchor="middle" x="130.21" y="-28.88" font-family="Helvetica,sans-Serif" font-size="10.00" fill="#ffffff">holms.cmd</text>
</g>
<!-- holms_cmd_legend&#45;&gt;holms_cmd -->
<g id="edge2" class="edge">
<title>holms_cmd_legend&#45;&gt;holms_cmd</title><style>.edge>path:hover{stroke-width:8}</style>
<path fill="none" stroke="black" d="M123.89,-98.79C123.26,-86.19 123.32,-71.68 124.08,-59.45"/>
<polygon fill="#35a135" stroke="black" points="127.57,-59.64 124.92,-49.38 120.6,-59.06 127.57,-59.64"/>
</g>
<!-- holms_cmd&#45;&gt;holms_cmd_legend -->
<g id="edge1" class="edge">
<title>holms_cmd&#45;&gt;holms_cmd_legend</title><style>.edge>path:hover{stroke-width:8}</style>
<path fill="none" stroke="black" d="M135.49,-49.38C136.69,-60.25 137.16,-74.82 136.88,-88.54"/>
<polygon fill="#2bac2b" stroke="black" points="133.37,-88.67 136.52,-98.79 140.37,-88.92 133.37,-88.67"/>
</g>
<!-- holms_core_view&#45;&gt;holms_core_writer -->
<g id="edge3" class="edge">
<title>holms_core_view&#45;&gt;holms_core_writer</title><style>.edge>path:hover{stroke-width:8}</style>
<path fill="none" stroke="black" d="M41.53,-62.96C41.94,-71.09 42.05,-80 41.88,-88.57"/>
<polygon fill="#38a838" stroke="black" points="38.37,-88.67 41.52,-98.79 45.37,-88.92 38.37,-88.67"/>
</g>
</g>
</svg>
