<?xml version="1.0" encoding="UTF-8" standalone="no"?>
<!DOCTYPE svg PUBLIC "-//W3C//DTD SVG 1.1//EN"
 "http://www.w3.org/Graphics/SVG/1.1/DTD/svg11.dtd">
<!-- Generated by graphviz version 2.43.0 (0)
 -->
<!-- Title: G Pages: 1 -->
<svg width="287pt" height="170pt"
 viewBox="0.00 0.00 286.62 169.52" xmlns="http://www.w3.org/2000/svg" xmlns:xlink="http://www.w3.org/1999/xlink">
<g id="graph0" class="graph" transform="scale(1 1) rotate(0) translate(4 165.52)">
<title>G</title><style>.edge>path:hover{stroke-width:8}</style>
<polygon fill="white" stroke="transparent" points="-4,4 -4,-165.52 282.62,-165.52 282.62,4 -4,4"/>
<!-- holms_cmd -->
<g id="node1" class="node">
<title>holms_cmd</title><style>.edge>path:hover{stroke-width:8}</style>
<polygon fill="#2bac2b" stroke="black" points="82.75,-122.68 82.75,-137.6 58.54,-148.14 24.3,-148.14 0.08,-137.6 0.08,-122.68 24.3,-112.14 58.54,-112.14 82.75,-122.68"/>
<text text-anchor="middle" x="41.42" y="-127.64" font-family="Helvetica,sans-Serif" font-size="10.00" fill="#ffffff">holms.cmd</text>
</g>
<!-- holms_cmd_legend -->
<g id="node5" class="node">
<title>holms_cmd_legend</title><style>.edge>path:hover{stroke-width:8}</style>
<polygon fill="#35a135" stroke="black" points="76.83,-18.43 76.83,-44.33 56.09,-62.64 26.75,-62.64 6,-44.33 6,-18.43 26.75,-0.12 56.09,-0.12 76.83,-18.43"/>
<text text-anchor="middle" x="41.42" y="-39.88" font-family="Helvetica,sans-Serif" font-size="10.00" fill="#ffffff">holms.</text>
<text text-anchor="middle" x="41.42" y="-28.88" font-family="Helvetica,sans-Serif" font-size="10.00" fill="#ffffff">cmd.</text>
<text text-anchor="middle" x="41.42" y="-17.88" font-family="Helvetica,sans-Serif" font-size="10.00" fill="#ffffff">legend</text>
</g>
<!-- holms_cmd&#45;&gt;holms_cmd_legend -->
<g id="edge1" class="edge">
<title>holms_cmd&#45;&gt;holms_cmd_legend</title><style>.edge>path:hover{stroke-width:8}</style>
<path fill="none" stroke="black" d="M36.1,-111.84C34.92,-101.01 34.47,-86.58 34.74,-72.99"/>
<polygon fill="#2bac2b" stroke="black" points="38.25,-72.95 35.1,-62.83 31.25,-72.7 38.25,-72.95"/>
</g>
<!-- holms_shared_util -->
<g id="node2" class="node">
<title>holms_shared_util</title><style>.edge>path:hover{stroke-width:8}</style>
<polygon fill="#3ab03a" stroke="black" points="179.92,-117.19 179.92,-143.09 157.95,-161.4 126.88,-161.4 104.91,-143.09 104.91,-117.19 126.88,-98.88 157.95,-98.88 179.92,-117.19"/>
<text text-anchor="middle" x="142.42" y="-138.64" font-family="Helvetica,sans-Serif" font-size="10.00" fill="#ffffff">holms.</text>
<text text-anchor="middle" x="142.42" y="-127.64" font-family="Helvetica,sans-Serif" font-size="10.00" fill="#ffffff">shared.</text>
<text text-anchor="middle" x="142.42" y="-116.64" font-family="Helvetica,sans-Serif" font-size="10.00" fill="#ffffff">util</text>
</g>
<!-- holms_shared -->
<g id="node3" class="node">
<title>holms_shared</title><style>.edge>path:hover{stroke-width:8}</style>
<polygon fill="#0ce90c" stroke="black" points="189.99,-23.92 189.99,-38.84 162.12,-49.38 122.71,-49.38 94.84,-38.84 94.84,-23.92 122.71,-13.38 162.12,-13.38 189.99,-23.92"/>
<text text-anchor="middle" x="142.42" y="-28.88" font-family="Helvetica,sans-Serif" font-size="10.00" fill="#000000">holms.shared</text>
</g>
<!-- holms_shared_util&#45;&gt;holms_shared -->
<g id="edge6" class="edge">
<title>holms_shared_util&#45;&gt;holms_shared</title><style>.edge>path:hover{stroke-width:8}</style>
<path fill="none" stroke="black" d="M136.1,-98.79C135.46,-86.19 135.53,-71.68 136.29,-59.45"/>
<polygon fill="#3ab03a" stroke="black" points="139.78,-59.64 137.13,-49.38 132.81,-59.06 139.78,-59.64"/>
</g>
<!-- holms_shared&#45;&gt;holms_shared_util -->
<g id="edge5" class="edge">
<title>holms_shared&#45;&gt;holms_shared_util</title><style>.edge>path:hover{stroke-width:8}</style>
<path fill="none" stroke="black" d="M147.7,-49.38C148.9,-60.25 149.37,-74.82 149.09,-88.54"/>
<polygon fill="#0ce90c" stroke="black" points="145.58,-88.67 148.73,-98.79 152.58,-88.92 145.58,-88.67"/>
</g>
<!-- holms_core_writer -->
<g id="node4" class="node">
<title>holms_core_writer</title><style>.edge>path:hover{stroke-width:8}</style>
<polygon fill="#208320" stroke="black" points="278.83,-117.19 278.83,-143.09 258.09,-161.4 228.75,-161.4 208,-143.09 208,-117.19 228.75,-98.88 258.09,-98.88 278.83,-117.19"/>
<text text-anchor="middle" x="243.42" y="-138.64" font-family="Helvetica,sans-Serif" font-size="10.00" fill="#ffffff">holms.</text>
<text text-anchor="middle" x="243.42" y="-127.64" font-family="Helvetica,sans-Serif" font-size="10.00" fill="#ffffff">core.</text>
<text text-anchor="middle" x="243.42" y="-116.64" font-family="Helvetica,sans-Serif" font-size="10.00" fill="#ffffff">writer</text>
</g>
<!-- holms_core_view -->
<g id="node6" class="node">
<title>holms_core_view</title><style>.edge>path:hover{stroke-width:8}</style>
<polygon fill="#309130" stroke="black" points="278.83,-18.43 278.83,-44.33 258.09,-62.64 228.75,-62.64 208,-44.33 208,-18.43 228.75,-0.12 258.09,-0.12 278.83,-18.43"/>
<text text-anchor="middle" x="243.42" y="-39.88" font-family="Helvetica,sans-Serif" font-size="10.00" fill="#ffffff">holms.</text>
<text text-anchor="middle" x="243.42" y="-28.88" font-family="Helvetica,sans-Serif" font-size="10.00" fill="#ffffff">core.</text>
<text text-anchor="middle" x="243.42" y="-17.88" font-family="Helvetica,sans-Serif" font-size="10.00" fill="#ffffff">view</text>
</g>
<!-- holms_core_writer&#45;&gt;holms_core_view -->
<g id="edge4" class="edge">
<title>holms_core_writer&#45;&gt;holms_core_view</title><style>.edge>path:hover{stroke-width:8}</style>
<path fill="none" stroke="black" d="M237.1,-98.79C236.69,-90.67 236.57,-81.77 236.74,-73.19"/>
<polygon fill="#208320" stroke="black" points="240.25,-73.07 237.09,-62.96 233.25,-72.83 240.25,-73.07"/>
</g>
<!-- holms_cmd_legend&#45;&gt;holms_cmd -->
<g id="edge2" class="edge">
<title>holms_cmd_legend&#45;&gt;holms_cmd</title><style>.edge>path:hover{stroke-width:8}</style>
<path fill="none" stroke="black" d="M47.74,-62.83C48.36,-75.33 48.3,-89.68 47.56,-101.83"/>
<polygon fill="#35a135" stroke="black" points="44.07,-101.59 46.73,-111.84 51.05,-102.16 44.07,-101.59"/>
</g>
<!-- holms_core_view&#45;&gt;holms_core_writer -->
<g id="edge3" class="edge">
<title>holms_core_view&#45;&gt;holms_core_writer</title><style>.edge>path:hover{stroke-width:8}</style>
<path fill="none" stroke="black" d="M249.74,-62.96C250.15,-71.09 250.26,-80 250.09,-88.57"/>
<polygon fill="#309130" stroke="black" points="246.58,-88.67 249.73,-98.79 253.58,-88.92 246.58,-88.67"/>
</g>
</g>
</svg>
