<?xml version="1.0" encoding="UTF-8" standalone="no"?>
<!DOCTYPE svg PUBLIC "-//W3C//DTD SVG 1.1//EN"
 "http://www.w3.org/Graphics/SVG/1.1/DTD/svg11.dtd">
<!-- Generated by graphviz version 2.43.0 (0)
 -->
<!-- Title: G Pages: 1 -->
<svg width="204pt" height="299pt"
 viewBox="0.00 0.00 204.00 299.00" xmlns="http://www.w3.org/2000/svg" xmlns:xlink="http://www.w3.org/1999/xlink">
<g id="graph0" class="graph" transform="scale(1 1) rotate(0) translate(4 295)">
<title>G</title><style>.edge>path:hover{stroke-width:8}</style>
<polygon fill="white" stroke="transparent" points="-4,4 -4,-295 200,-295 200,4 -4,4"/>
<!-- holms -->
<g id="node1" class="node">
<title>holms</title><style>.edge>path:hover{stroke-width:8}</style>
<polygon fill="#06f9f9" stroke="black" points="109,-36 106,-40 85,-40 82,-36 55,-36 55,0 109,0 109,-36"/>
<text text-anchor="middle" x="82" y="-15.5" font-family="Helvetica,sans-Serif" font-size="10.00" fill="#000000">holms</text>
</g>
<!-- click -->
<g id="node2" class="node">
<title>click</title><style>.edge>path:hover{stroke-width:8}</style>
<polygon fill="#9c1111" stroke="black" points="54,-182 51,-186 30,-186 27,-182 0,-182 0,-146 54,-146 54,-182"/>
<text text-anchor="middle" x="27" y="-161.5" font-family="Helvetica,sans-Serif" font-size="10.00" fill="#ffffff">click</text>
</g>
<!-- click&#45;&gt;holms -->
<g id="edge1" class="edge">
<title>click&#45;&gt;holms</title><style>.edge>path:hover{stroke-width:8}</style>
<path fill="none" stroke="black" d="M54.14,-149.84C68.43,-140.82 82.85,-127.35 82,-110"/>
<path fill="none" stroke="black" d="M82,-109C80.97,-87.96 81.03,-64.13 81.31,-46.28"/>
<polygon fill="#9c1111" stroke="black" points="84.81,-46.33 81.5,-36.27 77.81,-46.2 84.81,-46.33"/>
</g>
<!-- es7s_commons -->
<g id="node3" class="node">
<title>es7s_commons</title><style>.edge>path:hover{stroke-width:8}</style>
<polygon fill="#4c7a1e" stroke="black" points="196,-182 193,-186 172,-186 169,-182 110,-182 110,-146 196,-146 196,-182"/>
<text text-anchor="middle" x="153" y="-161.5" font-family="Helvetica,sans-Serif" font-size="10.00" fill="#ffffff">es7s_commons</text>
</g>
<!-- es7s_commons&#45;&gt;holms -->
<g id="edge2" class="edge">
<title>es7s_commons&#45;&gt;holms</title><style>.edge>path:hover{stroke-width:8}</style>
<path fill="none" stroke="black" d="M109.66,-146.74C95.34,-138.4 82.8,-126.44 82,-110"/>
</g>
<!-- pytermor -->
<g id="node4" class="node">
<title>pytermor</title><style>.edge>path:hover{stroke-width:8}</style>
<polygon fill="#4c0395" stroke="black" points="109.5,-291 106.5,-295 85.5,-295 82.5,-291 54.5,-291 54.5,-255 109.5,-255 109.5,-291"/>
<text text-anchor="middle" x="82" y="-270.5" font-family="Helvetica,sans-Serif" font-size="10.00" fill="#ffffff">pytermor</text>
</g>
<!-- pytermor&#45;&gt;holms -->
<g id="edge4" class="edge">
<title>pytermor&#45;&gt;holms</title><style>.edge>path:hover{stroke-width:8}</style>
<path fill="none" stroke="black" d="M79.57,-254.94C78.65,-244.37 78.54,-230.64 82,-219"/>
<path fill="none" stroke="black" d="M82,-218C95.66,-171.99 84.34,-157.94 82,-110"/>
</g>
<!-- pytermor&#45;&gt;es7s_commons -->
<g id="edge3" class="edge">
<title>pytermor&#45;&gt;es7s_commons</title><style>.edge>path:hover{stroke-width:8}</style>
<path fill="none" stroke="black" d="M82,-218C85.66,-205.67 94.51,-195.73 104.77,-187.95"/>
<polygon fill="#4c0395" stroke="black" points="106.94,-190.7 113.22,-182.17 102.99,-184.93 106.94,-190.7"/>
</g>
</g>
</svg>
