<?xml version="1.0" encoding="UTF-8" standalone="no"?>
<!DOCTYPE svg PUBLIC "-//W3C//DTD SVG 1.1//EN"
 "http://www.w3.org/Graphics/SVG/1.1/DTD/svg11.dtd">
<!-- Generated by graphviz version 2.43.0 (0)
 -->
<!-- Title: G Pages: 1 -->
<svg width="204pt" height="188pt"
 viewBox="0.00 0.00 204.00 188.00" xmlns="http://www.w3.org/2000/svg" xmlns:xlink="http://www.w3.org/1999/xlink">
<g id="graph0" class="graph" transform="scale(1 1) rotate(0) translate(4 184)">
<title>G</title><style>.edge>path:hover{stroke-width:8}</style>
<polygon fill="white" stroke="transparent" points="-4,4 -4,-184 200,-184 200,4 -4,4"/>
<!-- holms -->
<g id="node1" class="node">
<title>holms</title><style>.edge>path:hover{stroke-width:8}</style>
<polygon fill="#38a8a8" stroke="black" points="109,-36 106,-40 85,-40 82,-36 55,-36 55,0 109,0 109,-36"/>
<text text-anchor="middle" x="82" y="-15.5" font-family="Helvetica,sans-Serif" font-size="10.00" fill="#000000">holms</text>
</g>
<!-- click -->
<g id="node2" class="node">
<title>click</title><style>.edge>path:hover{stroke-width:8}</style>
<polygon fill="#c04040" stroke="black" points="54,-108 51,-112 30,-112 27,-108 0,-108 0,-72 54,-72 54,-108"/>
<text text-anchor="middle" x="27" y="-87.5" font-family="Helvetica,sans-Serif" font-size="10.00" fill="#ffffff">click</text>
</g>
<!-- click&#45;&gt;holms -->
<g id="edge1" class="edge">
<title>click&#45;&gt;holms</title><style>.edge>path:hover{stroke-width:8}</style>
<path fill="none" stroke="black" d="M40.6,-71.7C47.12,-63.39 55.07,-53.28 62.25,-44.14"/>
<polygon fill="#c04040" stroke="black" points="65.13,-46.13 68.56,-36.1 59.63,-41.81 65.13,-46.13"/>
</g>
<!-- es7s_commons -->
<g id="node3" class="node">
<title>es7s_commons</title><style>.edge>path:hover{stroke-width:8}</style>
<polygon fill="#7ab83d" stroke="black" points="196,-108 193,-112 172,-112 169,-108 110,-108 110,-72 196,-72 196,-108"/>
<text text-anchor="middle" x="153" y="-87.5" font-family="Helvetica,sans-Serif" font-size="10.00" fill="#000000">es7s_commons</text>
</g>
<!-- es7s_commons&#45;&gt;holms -->
<g id="edge2" class="edge">
<title>es7s_commons&#45;&gt;holms</title><style>.edge>path:hover{stroke-width:8}</style>
<path fill="none" stroke="black" d="M135.45,-71.7C126.77,-63.14 116.14,-52.66 106.65,-43.3"/>
<polygon fill="#7ab83d" stroke="black" points="108.93,-40.63 99.35,-36.1 104.01,-45.62 108.93,-40.63"/>
</g>
<!-- pytermor -->
<g id="node4" class="node">
<title>pytermor</title><style>.edge>path:hover{stroke-width:8}</style>
<polygon fill="#7f33cc" stroke="black" points="144.5,-180 141.5,-184 120.5,-184 117.5,-180 89.5,-180 89.5,-144 144.5,-144 144.5,-180"/>
<text text-anchor="middle" x="117" y="-159.5" font-family="Helvetica,sans-Serif" font-size="10.00" fill="#ffffff">pytermor</text>
</g>
<!-- pytermor&#45;&gt;holms -->
<g id="edge4" class="edge">
<title>pytermor&#45;&gt;holms</title><style>.edge>path:hover{stroke-width:8}</style>
<path fill="none" stroke="black" d="M111.45,-143.92C108.19,-133.58 104.11,-120.1 101,-108 95.72,-87.47 90.76,-64.02 87.23,-46.34"/>
<polygon fill="#7f33cc" stroke="black" points="90.59,-45.3 85.22,-36.16 83.72,-46.65 90.59,-45.3"/>
</g>
<!-- pytermor&#45;&gt;es7s_commons -->
<g id="edge3" class="edge">
<title>pytermor&#45;&gt;es7s_commons</title><style>.edge>path:hover{stroke-width:8}</style>
<path fill="none" stroke="black" d="M125.9,-143.7C130,-135.73 134.95,-126.1 139.49,-117.26"/>
<polygon fill="#7f33cc" stroke="black" points="142.74,-118.6 144.2,-108.1 136.52,-115.4 142.74,-118.6"/>
</g>
</g>
</svg>
