<?xml version="1.0" encoding="UTF-8" standalone="no"?>
<!DOCTYPE svg PUBLIC "-//W3C//DTD SVG 1.1//EN"
 "http://www.w3.org/Graphics/SVG/1.1/DTD/svg11.dtd">
<!-- Generated by graphviz version 2.43.0 (0)
 -->
<!-- Title: G Pages: 1 -->
<svg width="204pt" height="262pt"
 viewBox="0.00 0.00 204.00 262.00" xmlns="http://www.w3.org/2000/svg" xmlns:xlink="http://www.w3.org/1999/xlink">
<g id="graph0" class="graph" transform="scale(1 1) rotate(0) translate(4 258)">
<title>G</title><style>.edge>path:hover{stroke-width:8}</style>
<polygon fill="white" stroke="transparent" points="-4,4 -4,-258 200,-258 200,4 -4,4"/>
<!-- holms -->
<g id="node1" class="node">
<title>holms</title><style>.edge>path:hover{stroke-width:8}</style>
<polygon fill="#33cccc" stroke="black" points="109,-36 106,-40 85,-40 82,-36 55,-36 55,0 109,0 109,-36"/>
<text text-anchor="middle" x="82" y="-15.5" font-family="Helvetica,sans-Serif" font-size="10.00" fill="#000000">holms</text>
</g>
<!-- click -->
<g id="node2" class="node">
<title>click</title><style>.edge>path:hover{stroke-width:8}</style>
<polygon fill="#9c1111" stroke="black" points="54,-145 51,-149 30,-149 27,-145 0,-145 0,-109 54,-109 54,-145"/>
<text text-anchor="middle" x="27" y="-124.5" font-family="Helvetica,sans-Serif" font-size="10.00" fill="#ffffff">click</text>
</g>
<!-- click&#45;&gt;holms -->
<g id="edge1" class="edge">
<title>click&#45;&gt;holms</title><style>.edge>path:hover{stroke-width:8}</style>
<path fill="none" stroke="black" d="M54.14,-112.84C68.43,-103.82 82.85,-90.35 82,-73"/>
<path fill="none" stroke="black" d="M82,-72C81.59,-63.69 81.48,-54.64 81.49,-46.41"/>
<polygon fill="#9c1111" stroke="black" points="84.99,-46.22 81.58,-36.2 77.99,-46.17 84.99,-46.22"/>
</g>
<!-- es7s_commons -->
<g id="node3" class="node">
<title>es7s_commons</title><style>.edge>path:hover{stroke-width:8}</style>
<polygon fill="#4c7326" stroke="black" points="196,-145 193,-149 172,-149 169,-145 110,-145 110,-109 196,-109 196,-145"/>
<text text-anchor="middle" x="153" y="-124.5" font-family="Helvetica,sans-Serif" font-size="10.00" fill="#ffffff">es7s_commons</text>
</g>
<!-- es7s_commons&#45;&gt;holms -->
<g id="edge2" class="edge">
<title>es7s_commons&#45;&gt;holms</title><style>.edge>path:hover{stroke-width:8}</style>
<path fill="none" stroke="black" d="M109.66,-109.74C95.34,-101.4 82.8,-89.44 82,-73"/>
</g>
<!-- pytermor -->
<g id="node4" class="node">
<title>pytermor</title><style>.edge>path:hover{stroke-width:8}</style>
<polygon fill="#4c0395" stroke="black" points="109.5,-254 106.5,-258 85.5,-258 82.5,-254 54.5,-254 54.5,-218 109.5,-218 109.5,-254"/>
<text text-anchor="middle" x="82" y="-233.5" font-family="Helvetica,sans-Serif" font-size="10.00" fill="#ffffff">pytermor</text>
</g>
<!-- pytermor&#45;&gt;holms -->
<g id="edge4" class="edge">
<title>pytermor&#45;&gt;holms</title><style>.edge>path:hover{stroke-width:8}</style>
<path fill="none" stroke="black" d="M79.57,-217.94C78.65,-207.37 78.54,-193.64 82,-182"/>
<path fill="none" stroke="black" d="M82,-181C95.66,-134.99 84.34,-120.94 82,-73"/>
</g>
<!-- pytermor&#45;&gt;es7s_commons -->
<g id="edge3" class="edge">
<title>pytermor&#45;&gt;es7s_commons</title><style>.edge>path:hover{stroke-width:8}</style>
<path fill="none" stroke="black" d="M82,-181C85.66,-168.67 94.51,-158.73 104.77,-150.95"/>
<polygon fill="#4c0395" stroke="black" points="106.94,-153.7 113.22,-145.17 102.99,-147.93 106.94,-153.7"/>
</g>
</g>
</svg>
