<?xml version="1.0" encoding="UTF-8" standalone="no"?>
<!DOCTYPE svg PUBLIC "-//W3C//DTD SVG 1.1//EN"
 "http://www.w3.org/Graphics/SVG/1.1/DTD/svg11.dtd">
<!-- Generated by graphviz version 2.43.0 (0)
 -->
<!-- Title: G Pages: 1 -->
<svg width="586pt" height="836pt"
 viewBox="0.00 0.00 585.76 836.00" xmlns="http://www.w3.org/2000/svg" xmlns:xlink="http://www.w3.org/1999/xlink">
<g id="graph0" class="graph" transform="scale(1 1) rotate(0) translate(4 832)">
<title>G</title><style>.edge>path:hover{stroke-width:8}</style>
<polygon fill="white" stroke="transparent" points="-4,4 -4,-832 581.76,-832 581.76,4 -4,4"/>
<!-- holms -->
<g id="node1" class="node">
<title>holms</title><style>.edge>path:hover{stroke-width:8}</style>
<ellipse fill="#06f906" stroke="black" cx="75.26" cy="-738" rx="27" ry="18"/>
<text text-anchor="middle" x="75.26" y="-735.5" font-family="Helvetica,sans-Serif" font-size="10.00" fill="#000000">holms</text>
</g>
<!-- holms___main__ -->
<g id="node2" class="node">
<title>holms___main__</title><style>.edge>path:hover{stroke-width:8}</style>
<ellipse fill="#59a659" stroke="black" cx="252.26" cy="-18" rx="34.96" ry="18"/>
<text text-anchor="middle" x="252.26" y="-15.5" font-family="Helvetica,sans-Serif" font-size="10.00" fill="#000000">__main__</text>
</g>
<!-- holms__version -->
<g id="node3" class="node">
<title>holms__version</title><style>.edge>path:hover{stroke-width:8}</style>
<ellipse fill="#53b653" stroke="black" cx="75.26" cy="-810" rx="31.4" ry="18"/>
<text text-anchor="middle" x="75.26" y="-807.5" font-family="Helvetica,sans-Serif" font-size="10.00" fill="#000000">_version</text>
</g>
<!-- holms__version&#45;&gt;holms -->
<g id="edge1" class="edge">
<title>holms__version&#45;&gt;holms</title><style>.edge>path:hover{stroke-width:8}</style>
<path fill="none" stroke="black" d="M75.26,-791.7C75.26,-783.98 75.26,-774.71 75.26,-766.11"/>
<polygon fill="#53b653" stroke="black" points="78.76,-766.1 75.26,-756.1 71.76,-766.1 78.76,-766.1"/>
</g>
<!-- holms_cli -->
<g id="node4" class="node">
<title>holms_cli</title><style>.edge>path:hover{stroke-width:8}</style>
<ellipse fill="#49ac49" stroke="black" cx="252.26" cy="-90" rx="27" ry="18"/>
<text text-anchor="middle" x="252.26" y="-87.5" font-family="Helvetica,sans-Serif" font-size="10.00" fill="#000000">cli</text>
</g>
<!-- holms_cli&#45;&gt;holms___main__ -->
<g id="edge2" class="edge">
<title>holms_cli&#45;&gt;holms___main__</title><style>.edge>path:hover{stroke-width:8}</style>
<path fill="none" stroke="black" d="M252.26,-71.7C252.26,-63.98 252.26,-54.71 252.26,-46.11"/>
<polygon fill="#49ac49" stroke="black" points="255.76,-46.1 252.26,-36.1 248.76,-46.1 255.76,-46.1"/>
</g>
<!-- holms_cli_common -->
<g id="node5" class="node">
<title>holms_cli_common</title><style>.edge>path:hover{stroke-width:8}</style>
<ellipse fill="#47c247" stroke="black" cx="219.26" cy="-234" rx="39.38" ry="18"/>
<text text-anchor="middle" x="219.26" y="-231.5" font-family="Helvetica,sans-Serif" font-size="10.00" fill="#000000">cli.common</text>
</g>
<!-- holms_cli_common&#45;&gt;holms_cli -->
<g id="edge3" class="edge">
<title>holms_cli_common&#45;&gt;holms_cli</title><style>.edge>path:hover{stroke-width:8}</style>
<path fill="none" stroke="black" d="M222,-215.82C224.99,-197.81 230.18,-168.75 236.26,-144 238.38,-135.37 241.06,-126.07 243.61,-117.7"/>
<polygon fill="#47c247" stroke="black" points="246.98,-118.65 246.62,-108.06 240.3,-116.56 246.98,-118.65"/>
</g>
<!-- holms_cli_entrypoint -->
<g id="node6" class="node">
<title>holms_cli_entrypoint</title><style>.edge>path:hover{stroke-width:8}</style>
<ellipse fill="#3d8f3d" stroke="black" cx="287.26" cy="-162" rx="42.27" ry="18"/>
<text text-anchor="middle" x="287.26" y="-159.5" font-family="Helvetica,sans-Serif" font-size="10.00" fill="#ffffff">cli.entrypoint</text>
</g>
<!-- holms_cli_common&#45;&gt;holms_cli_entrypoint -->
<g id="edge4" class="edge">
<title>holms_cli_common&#45;&gt;holms_cli_entrypoint</title><style>.edge>path:hover{stroke-width:8}</style>
<path fill="none" stroke="black" d="M234.69,-217.12C243.56,-207.99 254.86,-196.36 264.71,-186.22"/>
<polygon fill="#47c247" stroke="black" points="267.44,-188.43 271.89,-178.82 262.42,-183.56 267.44,-188.43"/>
</g>
<!-- holms_cli_entrypoint&#45;&gt;holms_cli -->
<g id="edge5" class="edge">
<title>holms_cli_entrypoint&#45;&gt;holms_cli</title><style>.edge>path:hover{stroke-width:8}</style>
<path fill="none" stroke="black" d="M278.79,-144.05C274.65,-135.77 269.57,-125.62 264.98,-116.42"/>
<polygon fill="#3d8f3d" stroke="black" points="268.02,-114.69 260.42,-107.31 261.76,-117.82 268.02,-114.69"/>
</g>
<!-- holms_cmd -->
<g id="node7" class="node">
<title>holms_cmd</title><style>.edge>path:hover{stroke-width:8}</style>
<ellipse fill="#35a135" stroke="black" cx="287.26" cy="-306" rx="27" ry="18"/>
<text text-anchor="middle" x="287.26" y="-303.5" font-family="Helvetica,sans-Serif" font-size="10.00" fill="#ffffff">cmd</text>
</g>
<!-- holms_cmd&#45;&gt;holms_cli_entrypoint -->
<g id="edge6" class="edge">
<title>holms_cmd&#45;&gt;holms_cli_entrypoint</title><style>.edge>path:hover{stroke-width:8}</style>
<path fill="none" stroke="black" d="M286.06,-287.95C285.35,-273.73 284.97,-252.96 287.26,-235"/>
</g>
<!-- holms_cmd_format -->
<g id="node8" class="node">
<title>holms_cmd_format</title><style>.edge>path:hover{stroke-width:8}</style>
<ellipse fill="#4cb34c" stroke="black" cx="287.26" cy="-378" rx="38.7" ry="18"/>
<text text-anchor="middle" x="287.26" y="-375.5" font-family="Helvetica,sans-Serif" font-size="10.00" fill="#000000">cmd.format</text>
</g>
<!-- holms_cmd_format&#45;&gt;holms_cmd -->
<g id="edge7" class="edge">
<title>holms_cmd_format&#45;&gt;holms_cmd</title><style>.edge>path:hover{stroke-width:8}</style>
<path fill="none" stroke="black" d="M287.26,-359.7C287.26,-351.98 287.26,-342.71 287.26,-334.11"/>
<polygon fill="#4cb34c" stroke="black" points="290.76,-334.1 287.26,-324.1 283.76,-334.1 290.76,-334.1"/>
</g>
<!-- holms_cmd_legend -->
<g id="node9" class="node">
<title>holms_cmd_legend</title><style>.edge>path:hover{stroke-width:8}</style>
<ellipse fill="#46a446" stroke="black" cx="53.26" cy="-378" rx="39.38" ry="18"/>
<text text-anchor="middle" x="53.26" y="-375.5" font-family="Helvetica,sans-Serif" font-size="10.00" fill="#ffffff">cmd.legend</text>
</g>
<!-- holms_cmd_legend&#45;&gt;holms_cmd -->
<g id="edge8" class="edge">
<title>holms_cmd_legend&#45;&gt;holms_cmd</title><style>.edge>path:hover{stroke-width:8}</style>
<path fill="none" stroke="black" d="M85.31,-367.41C129.41,-354.22 208.46,-330.57 253.47,-317.11"/>
<polygon fill="#46a446" stroke="black" points="254.49,-320.46 263.06,-314.24 252.48,-313.75 254.49,-320.46"/>
</g>
<!-- holms_cmd_path -->
<g id="node10" class="node">
<title>holms_cmd_path</title><style>.edge>path:hover{stroke-width:8}</style>
<ellipse fill="#53b653" stroke="black" cx="377.26" cy="-378" rx="33.61" ry="18"/>
<text text-anchor="middle" x="377.26" y="-375.5" font-family="Helvetica,sans-Serif" font-size="10.00" fill="#000000">cmd.path</text>
</g>
<!-- holms_cmd_path&#45;&gt;holms_cmd -->
<g id="edge9" class="edge">
<title>holms_cmd_path&#45;&gt;holms_cmd</title><style>.edge>path:hover{stroke-width:8}</style>
<path fill="none" stroke="black" d="M359.05,-362.83C345.65,-352.42 327.28,-338.12 312.47,-326.61"/>
<polygon fill="#53b653" stroke="black" points="314.27,-323.57 304.23,-320.2 309.98,-329.1 314.27,-323.57"/>
</g>
<!-- holms_cmd_run -->
<g id="node11" class="node">
<title>holms_cmd_run</title><style>.edge>path:hover{stroke-width:8}</style>
<ellipse fill="#409640" stroke="black" cx="459.26" cy="-378" rx="30.72" ry="18"/>
<text text-anchor="middle" x="459.26" y="-375.5" font-family="Helvetica,sans-Serif" font-size="10.00" fill="#ffffff">cmd.run</text>
</g>
<!-- holms_cmd_run&#45;&gt;holms_cmd -->
<g id="edge10" class="edge">
<title>holms_cmd_run&#45;&gt;holms_cmd</title><style>.edge>path:hover{stroke-width:8}</style>
<path fill="none" stroke="black" d="M435.4,-366.43C430.41,-364.27 425.18,-362.03 420.26,-360 379.69,-343.22 368.99,-340.41 328.26,-324 325.36,-322.83 322.34,-321.6 319.31,-320.36"/>
<polygon fill="#409640" stroke="black" points="320.37,-317.01 309.79,-316.43 317.7,-323.48 320.37,-317.01"/>
</g>
<!-- holms_cmd_version -->
<g id="node12" class="node">
<title>holms_cmd_version</title><style>.edge>path:hover{stroke-width:8}</style>
<ellipse fill="#4cb34c" stroke="black" cx="189.26" cy="-378" rx="41.41" ry="18"/>
<text text-anchor="middle" x="189.26" y="-375.5" font-family="Helvetica,sans-Serif" font-size="10.00" fill="#000000">cmd.version</text>
</g>
<!-- holms_cmd_version&#45;&gt;holms_cmd -->
<g id="edge11" class="edge">
<title>holms_cmd_version&#45;&gt;holms_cmd</title><style>.edge>path:hover{stroke-width:8}</style>
<path fill="none" stroke="black" d="M210.05,-362.15C224.93,-351.52 245.09,-337.13 261.07,-325.71"/>
<polygon fill="#4cb34c" stroke="black" points="263.36,-328.37 269.47,-319.71 259.29,-322.68 263.36,-328.37"/>
</g>
<!-- holms_core -->
<g id="node13" class="node">
<title>holms_core</title><style>.edge>path:hover{stroke-width:8}</style>
<ellipse fill="#2db42d" stroke="black" cx="159.26" cy="-522" rx="27" ry="18"/>
<text text-anchor="middle" x="159.26" y="-519.5" font-family="Helvetica,sans-Serif" font-size="10.00" fill="#ffffff">core</text>
</g>
<!-- holms_core&#45;&gt;holms_cli_entrypoint -->
<g id="edge12" class="edge">
<title>holms_core&#45;&gt;holms_cli_entrypoint</title><style>.edge>path:hover{stroke-width:8}</style>
<path fill="none" stroke="black" d="M120.26,-449C128.36,-409.37 118.46,-394.69 139.26,-360 161.4,-323.08 281.82,-277.7 287.26,-235"/>
<path fill="none" stroke="black" d="M287.26,-233C288.01,-218.97 288.08,-203.33 287.94,-190.4"/>
<polygon fill="#2db42d" stroke="black" points="291.43,-190.22 287.77,-180.27 284.43,-190.33 291.43,-190.22"/>
</g>
<!-- holms_core&#45;&gt;holms_cmd_legend -->
<g id="edge13" class="edge">
<title>holms_core&#45;&gt;holms_cmd_legend</title><style>.edge>path:hover{stroke-width:8}</style>
<path fill="none" stroke="black" d="M144.07,-507.03C131.35,-493.61 115.92,-472.26 120.26,-451"/>
<path fill="none" stroke="black" d="M120.26,-449C124.71,-427.23 106.74,-409.29 88.29,-397.02"/>
<polygon fill="#2db42d" stroke="black" points="89.92,-393.92 79.58,-391.63 86.24,-399.87 89.92,-393.92"/>
</g>
<!-- holms_core&#45;&gt;holms_cmd_run -->
<g id="edge14" class="edge">
<title>holms_core&#45;&gt;holms_cmd_run</title><style>.edge>path:hover{stroke-width:8}</style>
<path fill="none" stroke="black" d="M120.26,-449C124.96,-426 147.44,-437.47 170.26,-432 279.42,-405.82 312.29,-426.7 420.26,-396 422.54,-395.35 424.86,-394.6 427.17,-393.78"/>
<polygon fill="#2db42d" stroke="black" points="428.5,-397.02 436.54,-390.12 425.95,-390.5 428.5,-397.02"/>
</g>
<!-- holms_core_attr -->
<g id="node14" class="node">
<title>holms_core_attr</title><style>.edge>path:hover{stroke-width:8}</style>
<ellipse fill="#2fdb2f" stroke="black" cx="270.26" cy="-666" rx="31.4" ry="18"/>
<text text-anchor="middle" x="270.26" y="-663.5" font-family="Helvetica,sans-Serif" font-size="10.00" fill="#000000">core.attr</text>
</g>
<!-- holms_core_attr&#45;&gt;holms_core -->
<g id="edge15" class="edge">
<title>holms_core_attr&#45;&gt;holms_core</title><style>.edge>path:hover{stroke-width:8}</style>
<path fill="none" stroke="black" d="M242.81,-656.86C216.17,-647.17 178.08,-627.99 166.26,-595"/>
<path fill="none" stroke="black" d="M166.26,-593C161.44,-579.53 159.56,-563.72 158.95,-550.54"/>
<polygon fill="#2fdb2f" stroke="black" points="162.44,-550.1 158.69,-540.19 155.44,-550.28 162.44,-550.1"/>
</g>
<!-- holms_core_opt -->
<g id="node17" class="node">
<title>holms_core_opt</title><style>.edge>path:hover{stroke-width:8}</style>
<ellipse fill="#33cc33" stroke="black" cx="310.26" cy="-594" rx="30.72" ry="18"/>
<text text-anchor="middle" x="310.26" y="-591.5" font-family="Helvetica,sans-Serif" font-size="10.00" fill="#000000">core.opt</text>
</g>
<!-- holms_core_attr&#45;&gt;holms_core_opt -->
<g id="edge16" class="edge">
<title>holms_core_attr&#45;&gt;holms_core_opt</title><style>.edge>path:hover{stroke-width:8}</style>
<path fill="none" stroke="black" d="M279.54,-648.76C284.32,-640.4 290.25,-630.02 295.63,-620.61"/>
<polygon fill="#2fdb2f" stroke="black" points="298.84,-622.05 300.76,-611.63 292.76,-618.58 298.84,-622.05"/>
</g>
<!-- holms_core_view -->
<g id="node19" class="node">
<title>holms_core_view</title><style>.edge>path:hover{stroke-width:8}</style>
<ellipse fill="#3d8f3d" stroke="black" cx="214.26" cy="-450" rx="34.96" ry="18"/>
<text text-anchor="middle" x="214.26" y="-447.5" font-family="Helvetica,sans-Serif" font-size="10.00" fill="#ffffff">core.view</text>
</g>
<!-- holms_core_attr&#45;&gt;holms_core_view -->
<g id="edge17" class="edge">
<title>holms_core_attr&#45;&gt;holms_core_view</title><style>.edge>path:hover{stroke-width:8}</style>
<path fill="none" stroke="black" d="M166.26,-593C153.54,-557.49 220.31,-560.24 214.26,-523"/>
<path fill="none" stroke="black" d="M214.26,-521C212,-507.04 211.79,-491.3 212.24,-478.29"/>
<polygon fill="#2fdb2f" stroke="black" points="215.75,-478.26 212.74,-468.1 208.76,-477.91 215.75,-478.26"/>
</g>
<!-- holms_core_writer -->
<g id="node20" class="node">
<title>holms_core_writer</title><style>.edge>path:hover{stroke-width:8}</style>
<ellipse fill="#2b822b" stroke="black" cx="294.26" cy="-522" rx="36.49" ry="18"/>
<text text-anchor="middle" x="294.26" y="-519.5" font-family="Helvetica,sans-Serif" font-size="10.00" fill="#ffffff">core.writer</text>
</g>
<!-- holms_core_attr&#45;&gt;holms_core_writer -->
<g id="edge18" class="edge">
<title>holms_core_attr&#45;&gt;holms_core_writer</title><style>.edge>path:hover{stroke-width:8}</style>
<path fill="none" stroke="black" d="M293.88,-654.24C324.15,-639.65 372.39,-613.31 369.26,-595"/>
<path fill="none" stroke="black" d="M369.26,-593C365.37,-570.22 346.15,-552.55 328.15,-540.66"/>
<polygon fill="#2fdb2f" stroke="black" points="329.82,-537.58 319.48,-535.29 326.14,-543.53 329.82,-537.58"/>
</g>
<!-- holms_core_cats -->
<g id="node15" class="node">
<title>holms_core_cats</title><style>.edge>path:hover{stroke-width:8}</style>
<ellipse fill="#47c247" stroke="black" cx="228.26" cy="-594" rx="33.61" ry="18"/>
<text text-anchor="middle" x="228.26" y="-591.5" font-family="Helvetica,sans-Serif" font-size="10.00" fill="#000000">core.cats</text>
</g>
<!-- holms_core_cats&#45;&gt;holms_core -->
<g id="edge19" class="edge">
<title>holms_core_cats&#45;&gt;holms_core</title><style>.edge>path:hover{stroke-width:8}</style>
<path fill="none" stroke="black" d="M213.29,-577.81C203.85,-568.23 191.5,-555.7 180.99,-545.04"/>
<polygon fill="#47c247" stroke="black" points="183.25,-542.34 173.73,-537.68 178.26,-547.26 183.25,-542.34"/>
</g>
<!-- holms_core_cats&#45;&gt;holms_core_writer -->
<g id="edge20" class="edge">
<title>holms_core_cats&#45;&gt;holms_core_writer</title><style>.edge>path:hover{stroke-width:8}</style>
<path fill="none" stroke="black" d="M242.91,-577.46C251.51,-568.35 262.54,-556.65 272.17,-546.43"/>
<polygon fill="#47c247" stroke="black" points="274.89,-548.65 279.2,-538.98 269.79,-543.85 274.89,-548.65"/>
</g>
<!-- holms_core_char -->
<g id="node16" class="node">
<title>holms_core_char</title><style>.edge>path:hover{stroke-width:8}</style>
<ellipse fill="#31c431" stroke="black" cx="104.26" cy="-594" rx="33.61" ry="18"/>
<text text-anchor="middle" x="104.26" y="-591.5" font-family="Helvetica,sans-Serif" font-size="10.00" fill="#000000">core.char</text>
</g>
<!-- holms_core_char&#45;&gt;holms_core -->
<g id="edge21" class="edge">
<title>holms_core_char&#45;&gt;holms_core</title><style>.edge>path:hover{stroke-width:8}</style>
<path fill="none" stroke="black" d="M116.74,-577.12C123.87,-568.04 132.95,-556.49 140.88,-546.39"/>
<polygon fill="#31c431" stroke="black" points="143.78,-548.37 147.21,-538.34 138.28,-544.04 143.78,-548.37"/>
</g>
<!-- holms_core_char&#45;&gt;holms_core_view -->
<g id="edge22" class="edge">
<title>holms_core_char&#45;&gt;holms_core_view</title><style>.edge>path:hover{stroke-width:8}</style>
<path fill="none" stroke="black" d="M103.94,-575.96C104.42,-556.73 107.79,-525.37 123.26,-504 136.38,-485.89 157.74,-472.98 176.47,-464.44"/>
<polygon fill="#31c431" stroke="black" points="177.88,-467.65 185.69,-460.49 175.12,-461.22 177.88,-467.65"/>
</g>
<!-- holms_core_char&#45;&gt;holms_core_writer -->
<g id="edge23" class="edge">
<title>holms_core_char&#45;&gt;holms_core_writer</title><style>.edge>path:hover{stroke-width:8}</style>
<path fill="none" stroke="black" d="M131.08,-583.12C163.76,-571.08 219.19,-550.66 256.25,-537"/>
<polygon fill="#31c431" stroke="black" points="257.55,-540.26 265.72,-533.52 255.13,-533.69 257.55,-540.26"/>
</g>
<!-- holms_core_opt&#45;&gt;holms_core -->
<g id="edge24" class="edge">
<title>holms_core_opt&#45;&gt;holms_core</title><style>.edge>path:hover{stroke-width:8}</style>
<path fill="none" stroke="black" d="M287,-582.22C260.99,-570.16 218.74,-550.57 190.02,-537.26"/>
<polygon fill="#33cc33" stroke="black" points="191.38,-534.03 180.84,-533 188.44,-540.38 191.38,-534.03"/>
</g>
<!-- holms_core_opt&#45;&gt;holms_core_view -->
<g id="edge25" class="edge">
<title>holms_core_opt&#45;&gt;holms_core_view</title><style>.edge>path:hover{stroke-width:8}</style>
<path fill="none" stroke="black" d="M287.91,-581.51C260.45,-566.69 217.14,-540.71 214.26,-523"/>
</g>
<!-- holms_core_opt&#45;&gt;holms_core_writer -->
<g id="edge26" class="edge">
<title>holms_core_opt&#45;&gt;holms_core_writer</title><style>.edge>path:hover{stroke-width:8}</style>
<path fill="none" stroke="black" d="M306.39,-576.05C304.61,-568.26 302.45,-558.82 300.45,-550.08"/>
<polygon fill="#33cc33" stroke="black" points="303.85,-549.24 298.21,-540.28 297.03,-550.8 303.85,-549.24"/>
</g>
<!-- holms_core_reader -->
<g id="node18" class="node">
<title>holms_core_reader</title><style>.edge>path:hover{stroke-width:8}</style>
<ellipse fill="#53b653" stroke="black" cx="38.26" cy="-522" rx="38.03" ry="18"/>
<text text-anchor="middle" x="38.26" y="-519.5" font-family="Helvetica,sans-Serif" font-size="10.00" fill="#000000">core.reader</text>
</g>
<!-- holms_core_reader&#45;&gt;holms_cmd_run -->
<g id="edge27" class="edge">
<title>holms_core_reader&#45;&gt;holms_cmd_run</title><style>.edge>path:hover{stroke-width:8}</style>
<path fill="none" stroke="black" d="M45.85,-504.24C56.24,-483.41 77.01,-448.61 106.26,-432 228.43,-362.66 284.61,-432.47 420.26,-396 422.55,-395.39 424.88,-394.66 427.2,-393.86"/>
<polygon fill="#53b653" stroke="black" points="428.51,-397.1 436.57,-390.23 425.98,-390.57 428.51,-397.1"/>
</g>
<!-- holms_core_writer&#45;&gt;holms_cmd_run -->
<g id="edge29" class="edge">
<title>holms_core_writer&#45;&gt;holms_cmd_run</title><style>.edge>path:hover{stroke-width:8}</style>
<path fill="none" stroke="black" d="M311.61,-506.07C341.05,-480.73 400.89,-429.24 434.65,-400.18"/>
<polygon fill="#2b822b" stroke="black" points="437.34,-402.48 442.64,-393.31 432.78,-397.18 437.34,-402.48"/>
</g>
<!-- holms_core_writer&#45;&gt;holms_core_view -->
<g id="edge30" class="edge">
<title>holms_core_writer&#45;&gt;holms_core_view</title><style>.edge>path:hover{stroke-width:8}</style>
<path fill="none" stroke="black" d="M269.18,-499.06C259.56,-490.63 248.58,-481.03 238.99,-472.63"/>
<polygon fill="#2b822b" stroke="black" points="267.07,-501.86 276.9,-505.81 271.68,-496.59 267.07,-501.86"/>
<polygon fill="#2b822b" stroke="black" points="241.14,-469.87 231.31,-465.92 236.53,-475.14 241.14,-469.87"/>
</g>
<!-- holms_db -->
<g id="node21" class="node">
<title>holms_db</title><style>.edge>path:hover{stroke-width:8}</style>
<ellipse fill="#3ab03a" stroke="black" cx="251.26" cy="-738" rx="27" ry="18"/>
<text text-anchor="middle" x="251.26" y="-735.5" font-family="Helvetica,sans-Serif" font-size="10.00" fill="#ffffff">db</text>
</g>
<!-- holms_db&#45;&gt;holms_core_char -->
<g id="edge31" class="edge">
<title>holms_db&#45;&gt;holms_core_char</title><style>.edge>path:hover{stroke-width:8}</style>
<path fill="none" stroke="black" d="M236.63,-722.87C211.06,-698.16 158.04,-646.95 127.43,-617.38"/>
<polygon fill="#3ab03a" stroke="black" points="129.79,-614.79 120.16,-610.36 124.93,-619.83 129.79,-614.79"/>
</g>
<!-- holms_db&#45;&gt;holms_core_writer -->
<g id="edge32" class="edge">
<title>holms_db&#45;&gt;holms_core_writer</title><style>.edge>path:hover{stroke-width:8}</style>
<path fill="none" stroke="black" d="M268.08,-723.85C280.49,-713.69 297.4,-698.9 310.26,-684 325.77,-666.04 373.26,-618.39 369.26,-595"/>
</g>
<!-- holms_db_ascii_cc -->
<g id="node22" class="node">
<title>holms_db_ascii_cc</title><style>.edge>path:hover{stroke-width:8}</style>
<ellipse fill="#53b653" stroke="black" cx="163.26" cy="-810" rx="38.7" ry="18"/>
<text text-anchor="middle" x="163.26" y="-807.5" font-family="Helvetica,sans-Serif" font-size="10.00" fill="#000000">db.ascii_cc</text>
</g>
<!-- holms_db_ascii_cc&#45;&gt;holms_db -->
<g id="edge33" class="edge">
<title>holms_db_ascii_cc&#45;&gt;holms_db</title><style>.edge>path:hover{stroke-width:8}</style>
<path fill="none" stroke="black" d="M181.93,-794.15C194.92,-783.82 212.37,-769.93 226.52,-758.68"/>
<polygon fill="#53b653" stroke="black" points="228.77,-761.37 234.41,-752.4 224.41,-755.89 228.77,-761.37"/>
</g>
<!-- holms_db_ucblk -->
<g id="node23" class="node">
<title>holms_db_ucblk</title><style>.edge>path:hover{stroke-width:8}</style>
<ellipse fill="#53b653" stroke="black" cx="251.26" cy="-810" rx="31.4" ry="18"/>
<text text-anchor="middle" x="251.26" y="-807.5" font-family="Helvetica,sans-Serif" font-size="10.00" fill="#000000">db.ucblk</text>
</g>
<!-- holms_db_ucblk&#45;&gt;holms_db -->
<g id="edge34" class="edge">
<title>holms_db_ucblk&#45;&gt;holms_db</title><style>.edge>path:hover{stroke-width:8}</style>
<path fill="none" stroke="black" d="M251.26,-791.7C251.26,-783.98 251.26,-774.71 251.26,-766.11"/>
<polygon fill="#53b653" stroke="black" points="254.76,-766.1 251.26,-756.1 247.76,-766.1 254.76,-766.1"/>
</g>
<!-- holms_db_uccat -->
<g id="node24" class="node">
<title>holms_db_uccat</title><style>.edge>path:hover{stroke-width:8}</style>
<ellipse fill="#53b653" stroke="black" cx="332.26" cy="-810" rx="31.58" ry="18"/>
<text text-anchor="middle" x="332.26" y="-807.5" font-family="Helvetica,sans-Serif" font-size="10.00" fill="#000000">db.uccat</text>
</g>
<!-- holms_db_uccat&#45;&gt;holms_db -->
<g id="edge35" class="edge">
<title>holms_db_uccat&#45;&gt;holms_db</title><style>.edge>path:hover{stroke-width:8}</style>
<path fill="none" stroke="black" d="M315.48,-794.5C303.74,-784.35 287.89,-770.65 274.87,-759.4"/>
<polygon fill="#53b653" stroke="black" points="277.05,-756.66 267.2,-752.77 272.48,-761.96 277.05,-756.66"/>
</g>
<!-- holms_shared -->
<g id="node25" class="node">
<title>holms_shared</title><style>.edge>path:hover{stroke-width:8}</style>
<ellipse fill="#18dd18" stroke="black" cx="486.26" cy="-666" rx="27.16" ry="18"/>
<text text-anchor="middle" x="486.26" y="-663.5" font-family="Helvetica,sans-Serif" font-size="10.00" fill="#000000">shared</text>
</g>
<!-- holms_shared&#45;&gt;holms_cli_entrypoint -->
<g id="edge36" class="edge">
<title>holms_shared&#45;&gt;holms_cli_entrypoint</title><style>.edge>path:hover{stroke-width:8}</style>
<path fill="none" stroke="black" d="M494.26,-449C493.01,-416.14 535.64,-406.92 518.26,-379"/>
<path fill="none" stroke="black" d="M518.26,-377C486.43,-325.84 284.07,-295.17 287.26,-235"/>
</g>
<!-- holms_shared&#45;&gt;holms_cmd_run -->
<g id="edge37" class="edge">
<title>holms_shared&#45;&gt;holms_cmd_run</title><style>.edge>path:hover{stroke-width:8}</style>
<path fill="none" stroke="black" d="M494.26,-521C478.06,-494.44 495.45,-482.09 494.26,-451"/>
<path fill="none" stroke="black" d="M494.26,-449C493.63,-432.45 485.67,-415.8 477.5,-402.88"/>
<polygon fill="#18dd18" stroke="black" points="480.39,-400.92 471.9,-394.59 474.59,-404.84 480.39,-400.92"/>
</g>
<!-- holms_shared&#45;&gt;holms_core_view -->
<g id="edge38" class="edge">
<title>holms_shared&#45;&gt;holms_core_view</title><style>.edge>path:hover{stroke-width:8}</style>
<path fill="none" stroke="black" d="M494.26,-593C481.63,-564.57 510.47,-549.56 494.26,-523"/>
<path fill="none" stroke="black" d="M494.26,-521C469.82,-480.95 331.28,-462.03 258.67,-454.76"/>
<polygon fill="#18dd18" stroke="black" points="258.74,-451.26 248.45,-453.78 258.07,-458.22 258.74,-451.26"/>
</g>
<!-- holms_shared&#45;&gt;holms_core_writer -->
<g id="edge39" class="edge">
<title>holms_shared&#45;&gt;holms_core_writer</title><style>.edge>path:hover{stroke-width:8}</style>
<path fill="none" stroke="black" d="M492.8,-648.43C497.52,-633.77 501.86,-612.1 494.26,-595"/>
<path fill="none" stroke="black" d="M494.26,-593C481.22,-563.65 392.91,-541.77 338.08,-530.82"/>
<polygon fill="#18dd18" stroke="black" points="338.75,-527.39 328.26,-528.91 337.41,-534.26 338.75,-527.39"/>
</g>
<!-- holms_shared_log -->
<g id="node26" class="node">
<title>holms_shared_log</title><style>.edge>path:hover{stroke-width:8}</style>
<ellipse fill="#47c247" stroke="black" cx="541.26" cy="-738" rx="36.49" ry="18"/>
<text text-anchor="middle" x="541.26" y="-735.5" font-family="Helvetica,sans-Serif" font-size="10.00" fill="#000000">shared.log</text>
</g>
<!-- holms_shared_log&#45;&gt;holms_cli_entrypoint -->
<g id="edge40" class="edge">
<title>holms_shared_log&#45;&gt;holms_cli_entrypoint</title><style>.edge>path:hover{stroke-width:8}</style>
<path fill="none" stroke="black" d="M545,-719.9C555.89,-665.75 582.88,-494.85 518.26,-379"/>
</g>
<!-- holms_shared_log&#45;&gt;holms_shared -->
<g id="edge41" class="edge">
<title>holms_shared_log&#45;&gt;holms_shared</title><style>.edge>path:hover{stroke-width:8}</style>
<path fill="none" stroke="black" d="M528.51,-720.76C521.37,-711.68 512.34,-700.19 504.47,-690.18"/>
<polygon fill="#47c247" stroke="black" points="507.13,-687.89 498.2,-682.19 501.62,-692.21 507.13,-687.89"/>
</g>
<!-- holms_shared_scale -->
<g id="node27" class="node">
<title>holms_shared_scale</title><style>.edge>path:hover{stroke-width:8}</style>
<ellipse fill="#53b653" stroke="black" cx="399.26" cy="-666" rx="42.27" ry="18"/>
<text text-anchor="middle" x="399.26" y="-663.5" font-family="Helvetica,sans-Serif" font-size="10.00" fill="#000000">shared.scale</text>
</g>
<!-- holms_shared_scale&#45;&gt;holms_core_writer -->
<g id="edge42" class="edge">
<title>holms_shared_scale&#45;&gt;holms_core_writer</title><style>.edge>path:hover{stroke-width:8}</style>
<path fill="none" stroke="black" d="M389.51,-648.44C382.07,-634.67 372.56,-614.29 369.26,-595"/>
</g>
<!-- holms_shared_util -->
<g id="node28" class="node">
<title>holms_shared_util</title><style>.edge>path:hover{stroke-width:8}</style>
<ellipse fill="#49ac49" stroke="black" cx="450.26" cy="-738" rx="36.49" ry="18"/>
<text text-anchor="middle" x="450.26" y="-735.5" font-family="Helvetica,sans-Serif" font-size="10.00" fill="#000000">shared.util</text>
</g>
<!-- holms_shared_util&#45;&gt;holms_shared -->
<g id="edge43" class="edge">
<title>holms_shared_util&#45;&gt;holms_shared</title><style>.edge>path:hover{stroke-width:8}</style>
<path fill="none" stroke="black" d="M458.79,-720.41C463.1,-712.04 468.41,-701.71 473.22,-692.37"/>
<polygon fill="#49ac49" stroke="black" points="476.33,-693.96 477.79,-683.47 470.11,-690.76 476.33,-693.96"/>
</g>
</g>
</svg>
