<?xml version="1.0" encoding="UTF-8" standalone="no"?>
<!DOCTYPE svg PUBLIC "-//W3C//DTD SVG 1.1//EN"
 "http://www.w3.org/Graphics/SVG/1.1/DTD/svg11.dtd">
<!-- Generated by graphviz version 2.43.0 (0)
 -->
<!-- Title: G Pages: 1 -->
<svg width="517pt" height="836pt"
 viewBox="0.00 0.00 516.94 836.00" xmlns="http://www.w3.org/2000/svg" xmlns:xlink="http://www.w3.org/1999/xlink">
<g id="graph0" class="graph" transform="scale(1 1) rotate(0) translate(4 832)">
<title>G</title><style>.edge>path:hover{stroke-width:8}</style>
<polygon fill="white" stroke="transparent" points="-4,4 -4,-832 512.94,-832 512.94,4 -4,4"/>
<!-- holms -->
<g id="node1" class="node">
<title>holms</title><style>.edge>path:hover{stroke-width:8}</style>
<ellipse fill="#06f906" stroke="black" cx="132.55" cy="-738" rx="27" ry="18"/>
<text text-anchor="middle" x="132.55" y="-735.5" font-family="Helvetica,sans-Serif" font-size="10.00" fill="#000000">holms</text>
</g>
<!-- holms___main__ -->
<g id="node2" class="node">
<title>holms___main__</title><style>.edge>path:hover{stroke-width:8}</style>
<ellipse fill="#59a659" stroke="black" cx="431.55" cy="-18" rx="34.96" ry="18"/>
<text text-anchor="middle" x="431.55" y="-15.5" font-family="Helvetica,sans-Serif" font-size="10.00" fill="#000000">__main__</text>
</g>
<!-- holms__version -->
<g id="node3" class="node">
<title>holms__version</title><style>.edge>path:hover{stroke-width:8}</style>
<ellipse fill="#53b653" stroke="black" cx="132.55" cy="-810" rx="31.4" ry="18"/>
<text text-anchor="middle" x="132.55" y="-807.5" font-family="Helvetica,sans-Serif" font-size="10.00" fill="#000000">_version</text>
</g>
<!-- holms__version&#45;&gt;holms -->
<g id="edge1" class="edge">
<title>holms__version&#45;&gt;holms</title><style>.edge>path:hover{stroke-width:8}</style>
<path fill="none" stroke="black" d="M132.55,-791.7C132.55,-783.98 132.55,-774.71 132.55,-766.11"/>
<polygon fill="#53b653" stroke="black" points="136.05,-766.1 132.55,-756.1 129.05,-766.1 136.05,-766.1"/>
</g>
<!-- holms_cli -->
<g id="node4" class="node">
<title>holms_cli</title><style>.edge>path:hover{stroke-width:8}</style>
<ellipse fill="#49ac49" stroke="black" cx="431.55" cy="-90" rx="27" ry="18"/>
<text text-anchor="middle" x="431.55" y="-87.5" font-family="Helvetica,sans-Serif" font-size="10.00" fill="#000000">cli</text>
</g>
<!-- holms_cli&#45;&gt;holms___main__ -->
<g id="edge2" class="edge">
<title>holms_cli&#45;&gt;holms___main__</title><style>.edge>path:hover{stroke-width:8}</style>
<path fill="none" stroke="black" d="M431.55,-71.7C431.55,-63.98 431.55,-54.71 431.55,-46.11"/>
<polygon fill="#49ac49" stroke="black" points="435.05,-46.1 431.55,-36.1 428.05,-46.1 435.05,-46.1"/>
</g>
<!-- holms_cli_common -->
<g id="node5" class="node">
<title>holms_cli_common</title><style>.edge>path:hover{stroke-width:8}</style>
<ellipse fill="#47c247" stroke="black" cx="398.55" cy="-234" rx="39.38" ry="18"/>
<text text-anchor="middle" x="398.55" y="-231.5" font-family="Helvetica,sans-Serif" font-size="10.00" fill="#000000">cli.common</text>
</g>
<!-- holms_cli_common&#45;&gt;holms_cli -->
<g id="edge3" class="edge">
<title>holms_cli_common&#45;&gt;holms_cli</title><style>.edge>path:hover{stroke-width:8}</style>
<path fill="none" stroke="black" d="M401.29,-215.82C404.28,-197.81 409.47,-168.75 415.55,-144 417.67,-135.37 420.35,-126.07 422.9,-117.7"/>
<polygon fill="#47c247" stroke="black" points="426.27,-118.65 425.91,-108.06 419.59,-116.56 426.27,-118.65"/>
</g>
<!-- holms_cli_entrypoint -->
<g id="node6" class="node">
<title>holms_cli_entrypoint</title><style>.edge>path:hover{stroke-width:8}</style>
<ellipse fill="#439d43" stroke="black" cx="466.55" cy="-162" rx="42.27" ry="18"/>
<text text-anchor="middle" x="466.55" y="-159.5" font-family="Helvetica,sans-Serif" font-size="10.00" fill="#ffffff">cli.entrypoint</text>
</g>
<!-- holms_cli_common&#45;&gt;holms_cli_entrypoint -->
<g id="edge4" class="edge">
<title>holms_cli_common&#45;&gt;holms_cli_entrypoint</title><style>.edge>path:hover{stroke-width:8}</style>
<path fill="none" stroke="black" d="M413.98,-217.12C422.85,-207.99 434.15,-196.36 444,-186.22"/>
<polygon fill="#47c247" stroke="black" points="446.73,-188.43 451.18,-178.82 441.71,-183.56 446.73,-188.43"/>
</g>
<!-- holms_cli_entrypoint&#45;&gt;holms_cli -->
<g id="edge5" class="edge">
<title>holms_cli_entrypoint&#45;&gt;holms_cli</title><style>.edge>path:hover{stroke-width:8}</style>
<path fill="none" stroke="black" d="M458.08,-144.05C453.94,-135.77 448.86,-125.62 444.27,-116.42"/>
<polygon fill="#439d43" stroke="black" points="447.31,-114.69 439.71,-107.31 441.05,-117.82 447.31,-114.69"/>
</g>
<!-- holms_cmd -->
<g id="node7" class="node">
<title>holms_cmd</title><style>.edge>path:hover{stroke-width:8}</style>
<ellipse fill="#35a135" stroke="black" cx="224.55" cy="-306" rx="27" ry="18"/>
<text text-anchor="middle" x="224.55" y="-303.5" font-family="Helvetica,sans-Serif" font-size="10.00" fill="#ffffff">cmd</text>
</g>
<!-- holms_cmd&#45;&gt;holms_cli_entrypoint -->
<g id="edge6" class="edge">
<title>holms_cmd&#45;&gt;holms_cli_entrypoint</title><style>.edge>path:hover{stroke-width:8}</style>
<path fill="none" stroke="black" d="M251.12,-301.87C309.39,-294.36 444.94,-273.02 466.55,-235"/>
<path fill="none" stroke="black" d="M466.55,-233C473.81,-220.25 474.22,-203.95 472.63,-190.3"/>
<polygon fill="#35a135" stroke="black" points="476.02,-189.36 471.02,-180.03 469.11,-190.45 476.02,-189.36"/>
</g>
<!-- holms_cmd_format -->
<g id="node8" class="node">
<title>holms_cmd_format</title><style>.edge>path:hover{stroke-width:8}</style>
<ellipse fill="#4cb34c" stroke="black" cx="224.55" cy="-378" rx="38.7" ry="18"/>
<text text-anchor="middle" x="224.55" y="-375.5" font-family="Helvetica,sans-Serif" font-size="10.00" fill="#000000">cmd.format</text>
</g>
<!-- holms_cmd_format&#45;&gt;holms_cmd -->
<g id="edge7" class="edge">
<title>holms_cmd_format&#45;&gt;holms_cmd</title><style>.edge>path:hover{stroke-width:8}</style>
<path fill="none" stroke="black" d="M224.55,-359.7C224.55,-351.98 224.55,-342.71 224.55,-334.11"/>
<polygon fill="#4cb34c" stroke="black" points="228.05,-334.1 224.55,-324.1 221.05,-334.1 228.05,-334.1"/>
</g>
<!-- holms_cmd_legend -->
<g id="node9" class="node">
<title>holms_cmd_legend</title><style>.edge>path:hover{stroke-width:8}</style>
<ellipse fill="#46a446" stroke="black" cx="399.55" cy="-378" rx="39.38" ry="18"/>
<text text-anchor="middle" x="399.55" y="-375.5" font-family="Helvetica,sans-Serif" font-size="10.00" fill="#ffffff">cmd.legend</text>
</g>
<!-- holms_cmd_legend&#45;&gt;holms_cmd -->
<g id="edge8" class="edge">
<title>holms_cmd_legend&#45;&gt;holms_cmd</title><style>.edge>path:hover{stroke-width:8}</style>
<path fill="none" stroke="black" d="M370.66,-365.44C339.25,-352.88 289.2,-332.86 256.6,-319.82"/>
<polygon fill="#46a446" stroke="black" points="257.67,-316.48 247.09,-316.01 255.07,-322.98 257.67,-316.48"/>
</g>
<!-- holms_cmd_path -->
<g id="node10" class="node">
<title>holms_cmd_path</title><style>.edge>path:hover{stroke-width:8}</style>
<ellipse fill="#53b653" stroke="black" cx="33.55" cy="-378" rx="33.61" ry="18"/>
<text text-anchor="middle" x="33.55" y="-375.5" font-family="Helvetica,sans-Serif" font-size="10.00" fill="#000000">cmd.path</text>
</g>
<!-- holms_cmd_path&#45;&gt;holms_cmd -->
<g id="edge9" class="edge">
<title>holms_cmd_path&#45;&gt;holms_cmd</title><style>.edge>path:hover{stroke-width:8}</style>
<path fill="none" stroke="black" d="M59.88,-366.43C65.38,-364.27 71.14,-362.04 76.55,-360 115.91,-345.18 161.5,-329 191.57,-318.47"/>
<polygon fill="#53b653" stroke="black" points="192.86,-321.72 201.14,-315.12 190.55,-315.12 192.86,-321.72"/>
</g>
<!-- holms_cmd_run -->
<g id="node11" class="node">
<title>holms_cmd_run</title><style>.edge>path:hover{stroke-width:8}</style>
<ellipse fill="#439d43" stroke="black" cx="311.55" cy="-378" rx="30.72" ry="18"/>
<text text-anchor="middle" x="311.55" y="-375.5" font-family="Helvetica,sans-Serif" font-size="10.00" fill="#ffffff">cmd.run</text>
</g>
<!-- holms_cmd_run&#45;&gt;holms_cmd -->
<g id="edge10" class="edge">
<title>holms_cmd_run&#45;&gt;holms_cmd</title><style>.edge>path:hover{stroke-width:8}</style>
<path fill="none" stroke="black" d="M293.95,-362.83C281.08,-352.48 263.46,-338.31 249.2,-326.83"/>
<polygon fill="#439d43" stroke="black" points="251.23,-323.97 241.25,-320.43 246.84,-329.43 251.23,-323.97"/>
</g>
<!-- holms_cmd_version -->
<g id="node12" class="node">
<title>holms_cmd_version</title><style>.edge>path:hover{stroke-width:8}</style>
<ellipse fill="#4cb34c" stroke="black" cx="126.55" cy="-378" rx="41.41" ry="18"/>
<text text-anchor="middle" x="126.55" y="-375.5" font-family="Helvetica,sans-Serif" font-size="10.00" fill="#000000">cmd.version</text>
</g>
<!-- holms_cmd_version&#45;&gt;holms_cmd -->
<g id="edge11" class="edge">
<title>holms_cmd_version&#45;&gt;holms_cmd</title><style>.edge>path:hover{stroke-width:8}</style>
<path fill="none" stroke="black" d="M147.34,-362.15C162.22,-351.52 182.38,-337.13 198.36,-325.71"/>
<polygon fill="#4cb34c" stroke="black" points="200.65,-328.37 206.76,-319.71 196.59,-322.68 200.65,-328.37"/>
</g>
<!-- holms_core -->
<g id="node13" class="node">
<title>holms_core</title><style>.edge>path:hover{stroke-width:8}</style>
<ellipse fill="#2fbc2f" stroke="black" cx="466.55" cy="-522" rx="27" ry="18"/>
<text text-anchor="middle" x="466.55" y="-519.5" font-family="Helvetica,sans-Serif" font-size="10.00" fill="#000000">core</text>
</g>
<!-- holms_core&#45;&gt;holms_cli_entrypoint -->
<g id="edge12" class="edge">
<title>holms_core&#45;&gt;holms_cli_entrypoint</title><style>.edge>path:hover{stroke-width:8}</style>
<path fill="none" stroke="black" d="M466.55,-449C448.05,-405.19 443.05,-276.34 466.55,-235"/>
</g>
<!-- holms_core&#45;&gt;holms_cmd_legend -->
<g id="edge13" class="edge">
<title>holms_core&#45;&gt;holms_cmd_legend</title><style>.edge>path:hover{stroke-width:8}</style>
<path fill="none" stroke="black" d="M466.55,-449C458.38,-429.65 442.24,-412.52 427.85,-400.05"/>
<polygon fill="#2fbc2f" stroke="black" points="430.03,-397.31 420.09,-393.62 425.56,-402.7 430.03,-397.31"/>
</g>
<!-- holms_core&#45;&gt;holms_cmd_run -->
<g id="edge14" class="edge">
<title>holms_core&#45;&gt;holms_cmd_run</title><style>.edge>path:hover{stroke-width:8}</style>
<path fill="none" stroke="black" d="M470.11,-504.15C472.39,-489.5 473.74,-468.02 466.55,-451"/>
<path fill="none" stroke="black" d="M466.55,-449C465.27,-445.96 390.11,-412.99 344.93,-393.4"/>
<polygon fill="#2fbc2f" stroke="black" points="346.08,-390.09 335.51,-389.33 343.3,-396.51 346.08,-390.09"/>
</g>
<!-- holms_core_attr -->
<g id="node14" class="node">
<title>holms_core_attr</title><style>.edge>path:hover{stroke-width:8}</style>
<ellipse fill="#2fdb2f" stroke="black" cx="322.55" cy="-666" rx="31.4" ry="18"/>
<text text-anchor="middle" x="322.55" y="-663.5" font-family="Helvetica,sans-Serif" font-size="10.00" fill="#000000">core.attr</text>
</g>
<!-- holms_core_attr&#45;&gt;holms_core -->
<g id="edge15" class="edge">
<title>holms_core_attr&#45;&gt;holms_core</title><style>.edge>path:hover{stroke-width:8}</style>
<path fill="none" stroke="black" d="M352.25,-660.44C380.99,-654.43 423.62,-641 447.55,-612 461.74,-594.81 466.06,-569.53 467.08,-550.3"/>
<polygon fill="#2fdb2f" stroke="black" points="470.59,-550.15 467.35,-540.06 463.59,-549.97 470.59,-550.15"/>
</g>
<!-- holms_core_opt -->
<g id="node16" class="node">
<title>holms_core_opt</title><style>.edge>path:hover{stroke-width:8}</style>
<ellipse fill="#33cc33" stroke="black" cx="322.55" cy="-594" rx="30.72" ry="18"/>
<text text-anchor="middle" x="322.55" y="-591.5" font-family="Helvetica,sans-Serif" font-size="10.00" fill="#000000">core.opt</text>
</g>
<!-- holms_core_attr&#45;&gt;holms_core_opt -->
<g id="edge16" class="edge">
<title>holms_core_attr&#45;&gt;holms_core_opt</title><style>.edge>path:hover{stroke-width:8}</style>
<path fill="none" stroke="black" d="M322.55,-647.7C322.55,-639.98 322.55,-630.71 322.55,-622.11"/>
<polygon fill="#2fdb2f" stroke="black" points="326.05,-622.1 322.55,-612.1 319.05,-622.1 326.05,-622.1"/>
</g>
<!-- holms_core_view -->
<g id="node18" class="node">
<title>holms_core_view</title><style>.edge>path:hover{stroke-width:8}</style>
<ellipse fill="#439d43" stroke="black" cx="317.55" cy="-450" rx="34.96" ry="18"/>
<text text-anchor="middle" x="317.55" y="-447.5" font-family="Helvetica,sans-Serif" font-size="10.00" fill="#ffffff">core.view</text>
</g>
<!-- holms_core_attr&#45;&gt;holms_core_view -->
<g id="edge17" class="edge">
<title>holms_core_attr&#45;&gt;holms_core_view</title><style>.edge>path:hover{stroke-width:8}</style>
<path fill="none" stroke="black" d="M263.55,-593C255.94,-554.45 320.97,-562.14 317.55,-523"/>
<path fill="none" stroke="black" d="M317.55,-521C316.32,-506.91 316.21,-491.16 316.46,-478.17"/>
<polygon fill="#2fdb2f" stroke="black" points="319.96,-478.1 316.73,-468.01 312.96,-477.91 319.96,-478.1"/>
</g>
<!-- holms_core_writer -->
<g id="node19" class="node">
<title>holms_core_writer</title><style>.edge>path:hover{stroke-width:8}</style>
<ellipse fill="#339933" stroke="black" cx="253.55" cy="-522" rx="36.49" ry="18"/>
<text text-anchor="middle" x="253.55" y="-519.5" font-family="Helvetica,sans-Serif" font-size="10.00" fill="#ffffff">core.writer</text>
</g>
<!-- holms_core_attr&#45;&gt;holms_core_writer -->
<g id="edge18" class="edge">
<title>holms_core_attr&#45;&gt;holms_core_writer</title><style>.edge>path:hover{stroke-width:8}</style>
<path fill="none" stroke="black" d="M303.57,-651.46C288.16,-638.93 268.23,-618.7 263.55,-595"/>
<path fill="none" stroke="black" d="M263.55,-593C260.79,-578.98 258.47,-563.24 256.76,-550.24"/>
<polygon fill="#2fdb2f" stroke="black" points="260.2,-549.54 255.48,-540.06 253.26,-550.42 260.2,-549.54"/>
</g>
<!-- holms_core_char -->
<g id="node15" class="node">
<title>holms_core_char</title><style>.edge>path:hover{stroke-width:8}</style>
<ellipse fill="#31c431" stroke="black" cx="404.55" cy="-594" rx="33.61" ry="18"/>
<text text-anchor="middle" x="404.55" y="-591.5" font-family="Helvetica,sans-Serif" font-size="10.00" fill="#000000">core.char</text>
</g>
<!-- holms_core_char&#45;&gt;holms_core -->
<g id="edge19" class="edge">
<title>holms_core_char&#45;&gt;holms_core</title><style>.edge>path:hover{stroke-width:8}</style>
<path fill="none" stroke="black" d="M418.31,-577.46C426.61,-568.09 437.33,-555.99 446.56,-545.57"/>
<polygon fill="#31c431" stroke="black" points="449.25,-547.82 453.26,-538.01 444.01,-543.18 449.25,-547.82"/>
</g>
<!-- holms_core_char&#45;&gt;holms_core_view -->
<g id="edge20" class="edge">
<title>holms_core_char&#45;&gt;holms_core_view</title><style>.edge>path:hover{stroke-width:8}</style>
<path fill="none" stroke="black" d="M382.18,-580.17C356.88,-564.9 318.99,-539.42 317.55,-523"/>
</g>
<!-- holms_core_char&#45;&gt;holms_core_writer -->
<g id="edge21" class="edge">
<title>holms_core_char&#45;&gt;holms_core_writer</title><style>.edge>path:hover{stroke-width:8}</style>
<path fill="none" stroke="black" d="M379.96,-581.6C355.14,-570.09 316.58,-552.22 288.58,-539.24"/>
<polygon fill="#31c431" stroke="black" points="289.69,-535.9 279.15,-534.87 286.75,-542.25 289.69,-535.9"/>
</g>
<!-- holms_core_opt&#45;&gt;holms_core -->
<g id="edge22" class="edge">
<title>holms_core_opt&#45;&gt;holms_core</title><style>.edge>path:hover{stroke-width:8}</style>
<path fill="none" stroke="black" d="M345.37,-581.91C369.92,-569.98 409.07,-550.94 436.2,-537.76"/>
<polygon fill="#33cc33" stroke="black" points="437.79,-540.87 445.25,-533.36 434.73,-534.58 437.79,-540.87"/>
</g>
<!-- holms_core_opt&#45;&gt;holms_core_view -->
<g id="edge23" class="edge">
<title>holms_core_opt&#45;&gt;holms_core_view</title><style>.edge>path:hover{stroke-width:8}</style>
<path fill="none" stroke="black" d="M321.47,-575.73C320.55,-561.55 319.12,-540.96 317.55,-523"/>
</g>
<!-- holms_core_opt&#45;&gt;holms_core_writer -->
<g id="edge24" class="edge">
<title>holms_core_opt&#45;&gt;holms_core_writer</title><style>.edge>path:hover{stroke-width:8}</style>
<path fill="none" stroke="black" d="M307.92,-578.15C298.75,-568.85 286.75,-556.67 276.35,-546.12"/>
<polygon fill="#33cc33" stroke="black" points="278.64,-543.46 269.12,-538.8 273.65,-548.38 278.64,-543.46"/>
</g>
<!-- holms_core_reader -->
<g id="node17" class="node">
<title>holms_core_reader</title><style>.edge>path:hover{stroke-width:8}</style>
<ellipse fill="#53b653" stroke="black" cx="383.55" cy="-522" rx="38.03" ry="18"/>
<text text-anchor="middle" x="383.55" y="-519.5" font-family="Helvetica,sans-Serif" font-size="10.00" fill="#000000">core.reader</text>
</g>
<!-- holms_core_reader&#45;&gt;holms_cmd_run -->
<g id="edge25" class="edge">
<title>holms_core_reader&#45;&gt;holms_cmd_run</title><style>.edge>path:hover{stroke-width:8}</style>
<path fill="none" stroke="black" d="M381.96,-504C379.63,-485.36 374.13,-455.06 361.55,-432 355.12,-420.2 345.41,-409.07 336.26,-400.08"/>
<polygon fill="#53b653" stroke="black" points="338.47,-397.35 328.78,-393.06 333.68,-402.46 338.47,-397.35"/>
</g>
<!-- holms_core_writer&#45;&gt;holms_cmd_run -->
<g id="edge27" class="edge">
<title>holms_core_writer&#45;&gt;holms_cmd_run</title><style>.edge>path:hover{stroke-width:8}</style>
<path fill="none" stroke="black" d="M255.33,-503.96C257.71,-485.56 262.93,-455.7 273.55,-432 278.26,-421.51 285.21,-411 291.88,-402.14"/>
<polygon fill="#339933" stroke="black" points="294.69,-404.23 298.12,-394.21 289.19,-399.91 294.69,-404.23"/>
</g>
<!-- holms_core_writer&#45;&gt;holms_core_view -->
<g id="edge28" class="edge">
<title>holms_core_writer&#45;&gt;holms_core_view</title><style>.edge>path:hover{stroke-width:8}</style>
<path fill="none" stroke="black" d="M274.84,-497.71C281.66,-490.26 289.2,-482.01 296.03,-474.54"/>
<polygon fill="#339933" stroke="black" points="272.24,-495.37 268.08,-505.12 277.41,-500.1 272.24,-495.37"/>
<polygon fill="#339933" stroke="black" points="298.92,-476.56 303.09,-466.82 293.76,-471.84 298.92,-476.56"/>
</g>
<!-- holms_db -->
<g id="node20" class="node">
<title>holms_db</title><style>.edge>path:hover{stroke-width:8}</style>
<ellipse fill="#3ab03a" stroke="black" cx="308.55" cy="-738" rx="27" ry="18"/>
<text text-anchor="middle" x="308.55" y="-735.5" font-family="Helvetica,sans-Serif" font-size="10.00" fill="#ffffff">db</text>
</g>
<!-- holms_db&#45;&gt;holms_core_char -->
<g id="edge29" class="edge">
<title>holms_db&#45;&gt;holms_core_char</title><style>.edge>path:hover{stroke-width:8}</style>
<path fill="none" stroke="black" d="M325.21,-723.45C336.75,-713.44 351.9,-698.99 362.55,-684 376.33,-664.61 387.55,-639.99 394.91,-621.56"/>
<polygon fill="#3ab03a" stroke="black" points="398.25,-622.62 398.6,-612.03 391.72,-620.09 398.25,-622.62"/>
</g>
<!-- holms_db&#45;&gt;holms_core_writer -->
<g id="edge30" class="edge">
<title>holms_db&#45;&gt;holms_core_writer</title><style>.edge>path:hover{stroke-width:8}</style>
<path fill="none" stroke="black" d="M298.24,-721.27C283.91,-698.36 258.71,-653.97 249.55,-612 245.08,-591.51 246.47,-567.75 248.77,-549.94"/>
<polygon fill="#3ab03a" stroke="black" points="252.24,-550.35 250.23,-539.95 245.32,-549.34 252.24,-550.35"/>
</g>
<!-- holms_db_ascii_cc -->
<g id="node21" class="node">
<title>holms_db_ascii_cc</title><style>.edge>path:hover{stroke-width:8}</style>
<ellipse fill="#53b653" stroke="black" cx="220.55" cy="-810" rx="38.7" ry="18"/>
<text text-anchor="middle" x="220.55" y="-807.5" font-family="Helvetica,sans-Serif" font-size="10.00" fill="#000000">db.ascii_cc</text>
</g>
<!-- holms_db_ascii_cc&#45;&gt;holms_db -->
<g id="edge31" class="edge">
<title>holms_db_ascii_cc&#45;&gt;holms_db</title><style>.edge>path:hover{stroke-width:8}</style>
<path fill="none" stroke="black" d="M239.22,-794.15C252.21,-783.82 269.67,-769.93 283.81,-758.68"/>
<polygon fill="#53b653" stroke="black" points="286.06,-761.37 291.7,-752.4 281.7,-755.89 286.06,-761.37"/>
</g>
<!-- holms_db_ucblk -->
<g id="node22" class="node">
<title>holms_db_ucblk</title><style>.edge>path:hover{stroke-width:8}</style>
<ellipse fill="#53b653" stroke="black" cx="308.55" cy="-810" rx="31.4" ry="18"/>
<text text-anchor="middle" x="308.55" y="-807.5" font-family="Helvetica,sans-Serif" font-size="10.00" fill="#000000">db.ucblk</text>
</g>
<!-- holms_db_ucblk&#45;&gt;holms_db -->
<g id="edge32" class="edge">
<title>holms_db_ucblk&#45;&gt;holms_db</title><style>.edge>path:hover{stroke-width:8}</style>
<path fill="none" stroke="black" d="M308.55,-791.7C308.55,-783.98 308.55,-774.71 308.55,-766.11"/>
<polygon fill="#53b653" stroke="black" points="312.05,-766.1 308.55,-756.1 305.05,-766.1 312.05,-766.1"/>
</g>
<!-- holms_db_uccat -->
<g id="node23" class="node">
<title>holms_db_uccat</title><style>.edge>path:hover{stroke-width:8}</style>
<ellipse fill="#53b653" stroke="black" cx="389.55" cy="-810" rx="31.58" ry="18"/>
<text text-anchor="middle" x="389.55" y="-807.5" font-family="Helvetica,sans-Serif" font-size="10.00" fill="#000000">db.uccat</text>
</g>
<!-- holms_db_uccat&#45;&gt;holms_db -->
<g id="edge33" class="edge">
<title>holms_db_uccat&#45;&gt;holms_db</title><style>.edge>path:hover{stroke-width:8}</style>
<path fill="none" stroke="black" d="M372.77,-794.5C361.03,-784.35 345.18,-770.65 332.16,-759.4"/>
<polygon fill="#53b653" stroke="black" points="334.34,-756.66 324.49,-752.77 329.77,-761.96 334.34,-756.66"/>
</g>
</g>
</svg>
