<?xml version="1.0" encoding="UTF-8" standalone="no"?>
<!DOCTYPE svg PUBLIC "-//W3C//DTD SVG 1.1//EN"
 "http://www.w3.org/Graphics/SVG/1.1/DTD/svg11.dtd">
<!-- Generated by graphviz version 2.43.0 (0)
 -->
<!-- Title: G Pages: 1 -->
<svg width="278pt" height="404pt"
 viewBox="0.00 0.00 278.28 404.00" xmlns="http://www.w3.org/2000/svg" xmlns:xlink="http://www.w3.org/1999/xlink">
<g id="graph0" class="graph" transform="scale(1 1) rotate(0) translate(4 400)">
<title>G</title><style>.edge>path:hover{stroke-width:8}</style>
<polygon fill="white" stroke="transparent" points="-4,4 -4,-400 274.28,-400 274.28,4 -4,4"/>
<!-- holms -->
<g id="node1" class="node">
<title>holms</title><style>.edge>path:hover{stroke-width:8}</style>
<ellipse fill="#40c040" stroke="black" cx="31.2" cy="-306" rx="27" ry="18"/>
<text text-anchor="middle" x="31.2" y="-303.5" font-family="Helvetica,sans-Serif" font-size="10.00" fill="#000000">holms</text>
</g>
<!-- holms___main__ -->
<g id="node2" class="node">
<title>holms___main__</title><style>.edge>path:hover{stroke-width:8}</style>
<ellipse fill="#59a659" stroke="black" cx="224.2" cy="-18" rx="34.96" ry="18"/>
<text text-anchor="middle" x="224.2" y="-15.5" font-family="Helvetica,sans-Serif" font-size="10.00" fill="#000000">__main__</text>
</g>
<!-- holms__version -->
<g id="node3" class="node">
<title>holms__version</title><style>.edge>path:hover{stroke-width:8}</style>
<ellipse fill="#53b653" stroke="black" cx="31.2" cy="-378" rx="31.4" ry="18"/>
<text text-anchor="middle" x="31.2" y="-375.5" font-family="Helvetica,sans-Serif" font-size="10.00" fill="#000000">_version</text>
</g>
<!-- holms__version&#45;&gt;holms -->
<g id="edge1" class="edge">
<title>holms__version&#45;&gt;holms</title><style>.edge>path:hover{stroke-width:8}</style>
<path fill="none" stroke="black" d="M31.2,-359.7C31.2,-351.98 31.2,-342.71 31.2,-334.11"/>
<polygon fill="#53b653" stroke="black" points="34.7,-334.1 31.2,-324.1 27.7,-334.1 34.7,-334.1"/>
</g>
<!-- holms_ascii_cc -->
<g id="node4" class="node">
<title>holms_ascii_cc</title><style>.edge>path:hover{stroke-width:8}</style>
<ellipse fill="#53b653" stroke="black" cx="180.2" cy="-378" rx="31.4" ry="18"/>
<text text-anchor="middle" x="180.2" y="-375.5" font-family="Helvetica,sans-Serif" font-size="10.00" fill="#000000">ascii_cc</text>
</g>
<!-- holms_common -->
<g id="node7" class="node">
<title>holms_common</title><style>.edge>path:hover{stroke-width:8}</style>
<ellipse fill="#31c431" stroke="black" cx="180.2" cy="-306" rx="31.58" ry="18"/>
<text text-anchor="middle" x="180.2" y="-303.5" font-family="Helvetica,sans-Serif" font-size="10.00" fill="#000000">common</text>
</g>
<!-- holms_ascii_cc&#45;&gt;holms_common -->
<g id="edge2" class="edge">
<title>holms_ascii_cc&#45;&gt;holms_common</title><style>.edge>path:hover{stroke-width:8}</style>
<path fill="none" stroke="black" d="M180.2,-359.7C180.2,-351.98 180.2,-342.71 180.2,-334.11"/>
<polygon fill="#53b653" stroke="black" points="183.7,-334.1 180.2,-324.1 176.7,-334.1 183.7,-334.1"/>
</g>
<!-- holms_cli -->
<g id="node5" class="node">
<title>holms_cli</title><style>.edge>path:hover{stroke-width:8}</style>
<ellipse fill="#49ac49" stroke="black" cx="224.2" cy="-90" rx="27" ry="18"/>
<text text-anchor="middle" x="224.2" y="-87.5" font-family="Helvetica,sans-Serif" font-size="10.00" fill="#000000">cli</text>
</g>
<!-- holms_cli&#45;&gt;holms___main__ -->
<g id="edge3" class="edge">
<title>holms_cli&#45;&gt;holms___main__</title><style>.edge>path:hover{stroke-width:8}</style>
<path fill="none" stroke="black" d="M224.2,-71.7C224.2,-63.98 224.2,-54.71 224.2,-46.11"/>
<polygon fill="#49ac49" stroke="black" points="227.7,-46.1 224.2,-36.1 220.7,-46.1 227.7,-46.1"/>
</g>
<!-- holms_cmd -->
<g id="node6" class="node">
<title>holms_cmd</title><style>.edge>path:hover{stroke-width:8}</style>
<ellipse fill="#439d43" stroke="black" cx="197.2" cy="-162" rx="27" ry="18"/>
<text text-anchor="middle" x="197.2" y="-159.5" font-family="Helvetica,sans-Serif" font-size="10.00" fill="#ffffff">cmd</text>
</g>
<!-- holms_cmd&#45;&gt;holms_cli -->
<g id="edge4" class="edge">
<title>holms_cmd&#45;&gt;holms_cli</title><style>.edge>path:hover{stroke-width:8}</style>
<path fill="none" stroke="black" d="M203.6,-144.41C206.71,-136.34 210.53,-126.43 214.03,-117.35"/>
<polygon fill="#439d43" stroke="black" points="217.33,-118.55 217.66,-107.96 210.79,-116.03 217.33,-118.55"/>
</g>
<!-- holms_common&#45;&gt;holms_cli -->
<g id="edge5" class="edge">
<title>holms_common&#45;&gt;holms_cli</title><style>.edge>path:hover{stroke-width:8}</style>
<path fill="none" stroke="black" d="M206.22,-295.58C224.95,-287.26 248.85,-273.14 260.2,-252 283.88,-207.91 258.46,-148.99 239.93,-116.03"/>
<polygon fill="#31c431" stroke="black" points="242.77,-113.94 234.7,-107.07 236.72,-117.47 242.77,-113.94"/>
</g>
<!-- holms_common&#45;&gt;holms_cmd -->
<g id="edge6" class="edge">
<title>holms_common&#45;&gt;holms_cmd</title><style>.edge>path:hover{stroke-width:8}</style>
<path fill="none" stroke="black" d="M181.34,-287.89C182.62,-269.94 184.97,-240.92 188.2,-216 189.3,-207.54 190.76,-198.36 192.18,-190.06"/>
<polygon fill="#31c431" stroke="black" points="195.64,-190.59 193.94,-180.13 188.75,-189.37 195.64,-190.59"/>
</g>
<!-- holms_writer -->
<g id="node10" class="node">
<title>holms_writer</title><style>.edge>path:hover{stroke-width:8}</style>
<ellipse fill="#49ac49" stroke="black" cx="114.2" cy="-234" rx="27" ry="18"/>
<text text-anchor="middle" x="114.2" y="-231.5" font-family="Helvetica,sans-Serif" font-size="10.00" fill="#000000">writer</text>
</g>
<!-- holms_common&#45;&gt;holms_writer -->
<g id="edge7" class="edge">
<title>holms_common&#45;&gt;holms_writer</title><style>.edge>path:hover{stroke-width:8}</style>
<path fill="none" stroke="black" d="M165.88,-289.81C156.85,-280.23 145.04,-267.7 134.98,-257.04"/>
<polygon fill="#31c431" stroke="black" points="137.45,-254.55 128.04,-249.68 132.35,-259.36 137.45,-254.55"/>
</g>
<!-- holms_reader -->
<g id="node8" class="node">
<title>holms_reader</title><style>.edge>path:hover{stroke-width:8}</style>
<ellipse fill="#53b653" stroke="black" cx="224.2" cy="-234" rx="27" ry="18"/>
<text text-anchor="middle" x="224.2" y="-231.5" font-family="Helvetica,sans-Serif" font-size="10.00" fill="#000000">reader</text>
</g>
<!-- holms_reader&#45;&gt;holms_cmd -->
<g id="edge8" class="edge">
<title>holms_reader&#45;&gt;holms_cmd</title><style>.edge>path:hover{stroke-width:8}</style>
<path fill="none" stroke="black" d="M217.8,-216.41C214.69,-208.34 210.87,-198.43 207.36,-189.35"/>
<polygon fill="#53b653" stroke="black" points="210.6,-188.03 203.74,-179.96 204.07,-190.55 210.6,-188.03"/>
</g>
<!-- holms_uccat -->
<g id="node9" class="node">
<title>holms_uccat</title><style>.edge>path:hover{stroke-width:8}</style>
<ellipse fill="#53b653" stroke="black" cx="103.2" cy="-306" rx="27" ry="18"/>
<text text-anchor="middle" x="103.2" y="-303.5" font-family="Helvetica,sans-Serif" font-size="10.00" fill="#000000">uccat</text>
</g>
<!-- holms_uccat&#45;&gt;holms_writer -->
<g id="edge9" class="edge">
<title>holms_uccat&#45;&gt;holms_writer</title><style>.edge>path:hover{stroke-width:8}</style>
<path fill="none" stroke="black" d="M105.86,-288.05C107.07,-280.35 108.54,-271.03 109.9,-262.36"/>
<polygon fill="#53b653" stroke="black" points="113.39,-262.7 111.48,-252.28 106.47,-261.61 113.39,-262.7"/>
</g>
<!-- holms_writer&#45;&gt;holms_cmd -->
<g id="edge10" class="edge">
<title>holms_writer&#45;&gt;holms_cmd</title><style>.edge>path:hover{stroke-width:8}</style>
<path fill="none" stroke="black" d="M130.6,-219.17C142.84,-208.85 159.75,-194.58 173.47,-183.01"/>
<polygon fill="#49ac49" stroke="black" points="175.73,-185.69 181.12,-176.56 171.22,-180.33 175.73,-185.69"/>
</g>
</g>
</svg>
